<?xml version="1.0" standalone="no"?>
<svg xmlns="http://www.w3.org/2000/svg" viewBox="0 0 195 75" width="195" height="75"><g fill="#bb890a" color="#bb890a" transform="translate(75.483 0) scale(0.44) "><svg width="100.0" height="100.0" x="0.0" y="0.0" viewBox="0 0 100 100"><path d="M17.09,75.13l.09.08a.77.77,0,0,0,.15.16l.06,0s0,0,0,0L31.3,83.55l0,0,.07,0a1,1,0,0,0,.29.09h.12l.19,0,21-4.23L69.45,81h.21l.11,0a.8.8,0,0,0,.2-.07l0,0h0l17.21-9.33a1,1,0,0,0,.47-.55L96,47a1,1,0,0,0-.13-.89L86.05,31.9s0,0,0,0l0,0h0l0,0-.19-.16s0,0-.06,0l0,0,0,0L50.91,16.46l-.08,0a.32.32,0,0,0-.09,0h-.31l-.19,0-.1,0-32,13a.81.81,0,0,0-.29.19l0,.06a1,1,0,0,0-.16.2L4.12,55a1,1,0,0,0,0,1Zm15.56-3.66h.07a1,1,0,0,0,1-.92L35,54l11.77,3.23a.84.84,0,0,0,.27,0,.93.93,0,0,0,.29,0l11.78-3.61-6.86,24L32.9,81.45l.36-4.73a1,1,0,0,0-2-.15L30.93,81,19.39,74.27,32.8,56.08,31.73,70.4A1,1,0,0,0,32.65,71.47Zm39.52,6L82.24,60a1.09,1.09,0,0,0,.12-.36l1-6.77a1,1,0,1,0-2-.28l-.94,6.58L69,79,54.29,77.55l7.13-24.88L83.88,34.81l-.44,3.11a1,1,0,0,0,.85,1.13h.14a1,1,0,0,0,1-.86l.44-3.06,8,11.7L86,70ZM18.32,32.85l.74,2a1,1,0,0,0,.94.66,1,1,0,0,0,.34-.06,1,1,0,0,0,.6-1.28L19.77,31,49.1,19,46,32.24a1,1,0,0,0,.15.79l2.47,3.58a1,1,0,0,0,1.39.26,1,1,0,0,0,.26-1.39l-2.23-3.22,3.15-13.48L83.3,32.72,60.76,50.64l-2.7-3.91a1,1,0,0,0-1.65,1.14l2.53,3.66L47,55.21,34.52,51.78,24.36,43.69l-1.46-4a1,1,0,0,0-1.28-.6,1,1,0,0,0-.6,1.28l1.55,4.29a1,1,0,0,0,.32.44l9.79,7.8L18,72.84,6.17,55.42Z"></path><path d="M53.34,43.41a1,1,0,0,0,.82.43,1,1,0,0,0,.57-.18A1,1,0,0,0,55,42.27l-2.21-3.21a1,1,0,0,0-1.65,1.14Z"></path><path d="M83.75,42.79a1,1,0,0,0-1.13.85l-.5,3.52A1,1,0,0,0,83,48.29h.14a1,1,0,0,0,1-.86l.5-3.52A1,1,0,0,0,83.75,42.79Z"></path></svg></g><path fill="#2f8f41" fill-rule="nonzero" d="M7.14 4.99L7.14 18.02Q6.57 17.95 4.24 17.95L4.24 17.95L3.87 17.95L3.87 4.99L1.55 4.99Q0.52 4.99 0.33 5.10Q0.14 5.20 0.04 5.29L0.04 5.29L0 5.27L0 2.27L0.04 2.24Q0.42 2.37 2.12 2.37L2.12 2.37L9.47 2.37Q10.50 2.37 10.69 2.26Q10.88 2.16 10.98 2.07L10.98 2.07L11.02 2.09L11.02 5.09L10.98 5.12Q10.59 4.99 8.89 4.99L8.89 4.99L7.14 4.99ZM16.42 9.81L16.42 16.64Q16.42 17.65 16.46 17.95L16.46 17.95L13.55 17.95L13.55 1.20L16.42 1.20L16.42 6.62Q17.93 5.47 19.54 5.47L19.54 5.47Q21.50 5.47 22.70 6.77L22.70 6.77Q23.87 8.07 23.87 10.22L23.87 10.22L23.87 14.88Q23.87 16.86 23.93 17.26Q23.99 17.66 24.09 17.78Q24.19 17.89 24.26 17.99L24.26 17.99L24.23 18.04Q23.29 17.95 22.85 17.95L22.85 17.95L22.02 17.95Q21.63 17.95 21 17.99L21 17.99L21 11.20Q21 9.59 20.29 8.81L20.29 8.81Q19.75 8.23 18.82 8.23L18.82 8.23Q17.45 8.23 16.42 9.81L16.42 9.81ZM26.64 11.93L26.64 11.93Q26.64 10.56 27.11 9.39Q27.57 8.21 28.43 7.34L28.43 7.34Q30.26 5.47 33.21 5.47L33.21 5.47Q35.71 5.47 37.22 7.13L37.22 7.13Q38.71 8.72 38.71 11.13L38.71 11.13Q38.71 12.06 38.57 12.40L38.57 12.40Q37.39 12.73 33.80 12.73L33.80 12.73L29.67 12.73Q29.98 13.98 31.09 14.68Q32.20 15.38 33.98 15.38L33.98 15.38Q35.85 15.38 37.18 14.71L37.18 14.71Q37.54 14.53 37.71 14.38L37.71 14.38Q37.69 14.87 37.65 15.39L37.65 15.39L37.52 17.21Q36.63 17.82 34.64 18.06L34.64 18.06Q34.05 18.13 33.52 18.13L33.52 18.13Q30.54 18.13 28.59 16.39L28.59 16.39Q26.64 14.65 26.64 11.93ZM35.59 10.45L35.59 10.45Q35.11 7.93 32.85 7.93L32.85 7.93Q31.07 7.93 30.14 9.47L30.14 9.47Q29.86 9.94 29.71 10.50L29.71 10.50Q29.99 10.51 30.40 10.52L30.40 10.52L31.27 10.52Q31.70 10.54 32.10 10.54L32.10 10.54L32.77 10.54Q33.36 10.54 33.94 10.52L33.94 10.52L34.90 10.49Q35.29 10.48 35.59 10.45ZM58.91 3.23L58.91 3.23L58.69 6.68L58.61 6.70Q57.74 5.40 55.65 5.02L55.65 5.02Q55.00 4.89 54.39 4.89Q53.79 4.89 53.36 4.99Q52.93 5.10 52.63 5.30L52.63 5.30Q51.98 5.72 51.98 6.40L51.98 6.40Q51.98 7.29 52.55 7.73L52.55 7.73Q53.25 8.27 54.88 8.49Q56.51 8.71 57.49 9.08Q58.48 9.46 59.11 10.03L59.11 10.03Q60.30 11.11 60.30 13.08L60.30 13.08Q60.30 15.66 58.36 17.05L58.36 17.05Q56.70 18.25 54.16 18.25L54.16 18.25Q52.13 18.25 50.13 17.47L50.13 17.47Q49.48 17.21 48.98 16.88L48.98 16.88L49.11 12.96L49.16 12.93Q50.61 15.43 53.93 15.43L53.93 15.43Q56.29 15.43 57.05 14.30L57.05 14.30Q57.30 13.91 57.30 13.44Q57.30 12.96 57.15 12.65Q57 12.34 56.65 12.12L56.65 12.12Q55.97 11.67 54.36 11.52Q52.76 11.37 51.74 10.95Q50.72 10.52 50.11 9.90L50.11 9.90Q49.01 8.78 49.01 6.76L49.01 6.76Q49.01 4.68 50.47 3.39L50.47 3.39Q51.96 2.07 54.49 2.07Q57.01 2.07 58.91 3.23ZM62.30 11.89L62.30 11.89Q62.30 10.61 62.74 9.43Q63.18 8.25 64.00 7.37L64.00 7.37Q65.79 5.47 68.65 5.47L68.65 5.47Q71.50 5.47 73.17 7.27L73.17 7.27Q74.78 8.98 74.78 11.71L74.78 11.71Q74.78 14.44 73.13 16.23L73.13 16.23Q71.38 18.13 68.50 18.13L68.50 18.13Q65.52 18.13 63.83 16.27L63.83 16.27Q62.30 14.57 62.30 11.89ZM65.14 11.82L65.14 11.82Q65.14 12.56 65.39 13.25Q65.64 13.95 66.09 14.44L66.09 14.44Q67.07 15.50 68.65 15.50L68.65 15.50Q70.11 15.50 70.96 14.46L70.96 14.46Q71.78 13.45 71.78 11.84L71.78 11.84Q71.78 10.20 70.93 9.19L70.93 9.19Q70.03 8.11 68.46 8.11L68.46 8.11Q66.87 8.11 65.96 9.26L65.96 9.26Q65.14 10.31 65.14 11.82ZM80.30 9.76L80.30 16.45Q80.30 17.48 80.39 17.95L80.39 17.95L77.45 17.95L77.45 5.71L80.30 5.71L80.30 6.75Q81.84 5.47 83.60 5.47L83.60 5.47Q85.52 5.47 86.67 6.78Q87.82 8.09 87.82 10.22L87.82 10.22L87.82 14.88Q87.82 16.86 87.88 17.26Q87.94 17.66 88.04 17.78Q88.14 17.89 88.21 17.99L88.21 17.99L88.18 18.04Q87.23 17.95 86.80 17.95L86.80 17.95L85.98 17.95Q85.61 17.95 84.97 17.99L84.97 17.99L84.97 11.60Q84.97 8.17 82.89 8.17L82.89 8.17Q81.34 8.17 80.30 9.76L80.30 9.76ZM99.33 17.23L99.33 17.23Q97.66 18.13 96.32 18.13Q94.97 18.13 94.01 17.88Q93.05 17.63 92.38 17.13L92.38 17.13Q91.02 16.14 91.02 14.25L91.02 14.25Q91.02 12.56 92.68 11.44L92.68 11.44Q94.49 10.22 97.58 10.22L97.58 10.22L98.05 10.23Q98.19 10.24 98.37 10.25Q98.54 10.25 98.68 10.28L98.68 10.28Q98.59 8.40 97.07 8.09L97.07 8.09Q96.56 7.98 95.99 7.98Q95.43 7.98 94.88 8.08Q94.34 8.18 93.82 8.34L93.82 8.34Q92.68 8.71 92.19 9.18L92.19 9.18L92.16 9.15L91.80 6.56Q93.88 5.47 96.34 5.47L96.34 5.47Q100.16 5.47 101.23 8.23L101.23 8.23Q101.57 9.11 101.57 10.21L101.57 10.21L101.57 14.45Q101.57 15.81 102.53 16.30L102.53 16.30L100.41 18.25Q99.74 17.89 99.33 17.23ZM98.70 14.84L98.70 12.39Q98.38 12.33 98.04 12.33L98.04 12.33L97.57 12.33Q94.98 12.33 94.28 13.48L94.28 13.48Q94.07 13.82 94.07 14.19Q94.07 14.57 94.20 14.85Q94.34 15.14 94.65 15.33L94.65 15.33Q95.26 15.68 96.46 15.68Q97.66 15.68 98.71 15.11L98.71 15.11Q98.70 14.98 98.70 14.84L98.70 14.84ZM107.99 9.42L107.99 16.64Q107.99 17.65 108.04 17.95L108.04 17.95L105.12 17.95L105.12 5.71L107.99 5.71L107.99 6.61Q108.98 5.47 110.08 5.47Q111.18 5.47 111.81 5.74L111.81 5.74L111.60 8.89L111.55 8.93Q111.14 8.20 109.85 8.20L109.85 8.20Q109.36 8.20 108.85 8.54Q108.34 8.87 107.99 9.42L107.99 9.42ZM121.27 17.95L121.27 2.29Q122.89 2.07 124.61 2.07L124.61 2.07Q127.79 2.07 129.45 3.57Q131.11 5.06 131.11 8.04L131.11 8.04Q131.11 10.70 129.29 12.25L129.29 12.25Q127.59 13.70 124.92 13.70L124.92 13.70Q124.62 13.70 124.25 13.66L124.25 13.66L124.25 17.95L121.27 17.95ZM124.96 4.90L124.96 4.90Q124.61 4.90 124.25 4.92L124.25 4.92L124.25 11.09Q124.63 11.13 125.17 11.13Q125.71 11.13 126.29 10.90Q126.88 10.68 127.28 10.27L127.28 10.27Q128.11 9.41 128.11 8.02L128.11 8.02Q128.11 4.90 124.96 4.90ZM135.98 9.42L135.98 16.64Q135.98 17.65 136.03 17.95L136.03 17.95L133.11 17.95L133.11 5.71L135.98 5.71L135.98 6.61Q136.98 5.47 138.08 5.47Q139.17 5.47 139.80 5.74L139.80 5.74L139.59 8.89L139.55 8.93Q139.14 8.20 137.85 8.20L137.85 8.20Q137.36 8.20 136.85 8.54Q136.34 8.87 135.98 9.42L135.98 9.42ZM140.34 11.89L140.34 11.89Q140.34 10.61 140.78 9.43Q141.22 8.25 142.04 7.37L142.04 7.37Q143.84 5.47 146.70 5.47L146.70 5.47Q149.54 5.47 151.22 7.27L151.22 7.27Q152.82 8.98 152.82 11.71L152.82 11.71Q152.82 14.44 151.17 16.23L151.17 16.23Q149.43 18.13 146.54 18.13L146.54 18.13Q143.57 18.13 141.88 16.27L141.88 16.27Q140.34 14.57 140.34 11.89ZM143.19 11.82L143.19 11.82Q143.19 12.56 143.44 13.25Q143.68 13.95 144.14 14.44L144.14 14.44Q145.11 15.50 146.70 15.50L146.70 15.50Q148.16 15.50 149.00 14.46L149.00 14.46Q149.82 13.45 149.82 11.84L149.82 11.84Q149.82 10.20 148.98 9.19L148.98 9.19Q148.08 8.11 146.51 8.11L146.51 8.11Q144.91 8.11 144.01 9.26L144.01 9.26Q143.19 10.31 143.19 11.82ZM157.01 3.98L154.65 2.30Q155.41 1.08 156.40 0L156.40 0L158.64 1.77Q158.05 2.52 157.84 2.80L157.84 2.80L157.43 3.38Q157.23 3.64 157.01 3.98L157.01 3.98ZM153.35 19.77L153.35 19.77Q155.09 19.77 155.09 17.19L155.09 17.19L155.09 5.71L157.93 5.71L157.93 16.35Q157.93 21.27 155.13 22.17L155.13 22.17Q154.22 22.46 153.06 22.46L153.06 22.46L151.84 19.38L151.86 19.32Q152.53 19.77 153.35 19.77ZM160.69 11.93L160.69 11.93Q160.69 10.56 161.16 9.39Q161.63 8.21 162.48 7.34L162.48 7.34Q164.31 5.47 167.26 5.47L167.26 5.47Q169.76 5.47 171.27 7.13L171.27 7.13Q172.76 8.72 172.76 11.13L172.76 11.13Q172.76 12.06 172.62 12.40L172.62 12.40Q171.45 12.73 167.85 12.73L167.85 12.73L163.72 12.73Q164.03 13.98 165.14 14.68Q166.25 15.38 168.04 15.38L168.04 15.38Q169.90 15.38 171.23 14.71L171.23 14.71Q171.59 14.53 171.76 14.38L171.76 14.38Q171.74 14.87 171.70 15.39L171.70 15.39L171.57 17.21Q170.68 17.82 168.69 18.06L168.69 18.06Q168.11 18.13 167.57 18.13L167.57 18.13Q164.59 18.13 162.64 16.39L162.64 16.39Q160.69 14.65 160.69 11.93ZM169.64 10.45L169.64 10.45Q169.16 7.93 166.90 7.93L166.90 7.93Q165.12 7.93 164.19 9.47L164.19 9.47Q163.91 9.94 163.76 10.50L163.76 10.50Q164.04 10.51 164.45 10.52L164.45 10.52L165.32 10.52Q165.75 10.54 166.15 10.54L166.15 10.54L166.82 10.54Q167.41 10.54 167.99 10.52L167.99 10.52L168.95 10.49Q169.34 10.48 169.64 10.45ZM184.61 13.96L184.88 16.82Q183.56 18.13 180.76 18.13L180.76 18.13Q178.04 18.13 176.32 16.48L176.32 16.48Q174.57 14.80 174.57 12.02L174.57 12.02Q174.57 9.20 176.30 7.38L176.30 7.38Q178.13 5.47 181.18 5.47L181.18 5.47Q183.35 5.47 184.82 6.42L184.82 6.42L184.35 9.42L184.27 9.41Q183.70 8.73 183.08 8.52L183.08 8.52Q182.07 8.17 181.07 8.17Q180.06 8.17 179.48 8.43Q178.91 8.68 178.50 9.14L178.50 9.14Q177.68 10.08 177.68 11.63L177.68 11.63Q177.68 14.37 179.58 15.21L179.58 15.21Q180.23 15.49 180.97 15.49Q181.70 15.49 182.24 15.36Q182.79 15.23 183.23 15.01L183.23 15.01Q184.18 14.54 184.52 13.92L184.52 13.92L184.61 13.96ZM192.76 15.38L192.76 15.38Q194.27 15.38 194.84 14.59L194.84 14.59L194.93 14.59L194.96 17.31Q194.39 17.88 192.83 18.07L192.83 18.07Q192.41 18.13 191.78 18.13Q191.16 18.13 190.42 17.89Q189.69 17.66 189.18 17.13L189.18 17.13Q188.11 16.04 188.11 13.72L188.11 13.72L188.11 8.40L186.34 8.40Q186.33 8.06 186.33 7.71L186.33 7.71L186.33 5.91Q186.33 5.71 186.34 5.71L186.34 5.71L188.11 5.71L188.11 2.37L190.98 2.37L190.98 5.71L194.20 5.71L194.20 8.40L190.98 8.40L190.98 13.18Q190.98 15.02 192 15.28L192 15.28Q192.33 15.38 192.76 15.38Z" transform="translate(0, 52)"></path></svg>